<?xml version="1.0"?>
<svg xmlns:rdf="http://www.w3.org/1999/02/22-rdf-syntax-ns#" xmlns="http://www.w3.org/2000/svg" xmlns:cc="http://web.resource.org/cc/" xmlns:dc="http://purl.org/dc/elements/1.1/" xmlns:svg="http://www.w3.org/2000/svg" id="svg2" viewBox="0 0 255 304" version="1.0">
  <path id="path2167" d="m174.69 291.15c-3.47-0.85-11.92-4.4-18.76-7.9l-12.44-6.35-12.24 5.9c-14.5 6.99-21.52 8.97-31.726 8.97-10.379 0-12.012-1.22-12.012-8.98 0-5.56 0.195-6.03 3.75-8.97 4.682-3.88 13.768-6.74 25.598-8.09 5.02-0.56 9.39-1.35 9.72-1.74s-0.22-11.71-1.2-25.14c-1.89-25.64-1.75-24.92-9.27-45.58-2.17-5.95-2.55-8.64-2.52-18 0.02-6.05 0.46-13.25 0.98-16s1.22-7.47 1.55-10.5c0.78-6.98-0.5-8.28-10.84-10.93-10.207-2.61-16.498-5.96-21.644-11.55-3.98-4.31-5.564-7.21-12.444-22.72-2.184-4.93-3.257-6.096-7.819-8.504-8.179-4.318-11.554-8.062-12.409-13.765-0.692-4.611-0.571-4.982 2.419-7.44 1.731-1.422 3.143-3.149 3.138-3.836-0.005-0.725 1.253-1.25 2.991-1.25 1.65 0 3-0.247 3-0.549s-2.888-4.571-6.418-9.486c-8.616-12-9.678-16.965-3.627-16.965 4.028 0 8.33 5.314 11.056 13.656 1.23 3.764 2.631 7.271 3.113 7.794 0.507 0.549 0.882-3.033 0.891-8.5 0.015-9.675 1.027-13.344 4.235-15.347 2.499-1.561 5.178 0.391 5.548 4.042 0.164 1.619-0.629 7.106-1.762 12.193-2.249 10.096-1.995 11.568 2.57 14.893l2.637 1.921-1.622 5.578c-2.289 7.873-2.025 12.696 1.089 19.954 6.465 15.061 13.014 23.431 21.158 27.041 5.04 2.23 18.44 3.5 24.63 2.34 3.21-0.6 11.55-6.73 11.48-8.43-0.02-0.35-1.78-1.44-3.92-2.43-8.39-3.87-24.53-22.18-32.34-36.705-6.26-11.636-7.986-18.673-7.563-30.83 0.342-9.822 0.659-11.267 3.985-18.17 4.468-9.277 9.508-15.172 17.258-20.177 8.22-5.3162 16.91-7.8292 26.96-7.799 9.58 0.0288 14.99 1.1344 22.18 4.5383 25.82 12.216 34.77 42.066 20.88 69.632-7.24 14.364-21.39 31.401-31.53 37.971-4.6 2.99-4.71 3.17-3.25 5.4 2.58 3.94 7.57 7.06 15.21 9.52 8.05 2.6 9.72 4.2 12.99 12.5 4.5 11.42 5.42 35.42 1.79 46.96-2.06 6.56-7.09 14.08-11.23 16.8-2.4 1.57-3.59 3.34-4.4 6.58-1.1 4.35-3.97 39.12-3.99 48.18l-0.01 4.6 7.59 0.64c13.04 1.1 24.7 4.94 29.45 9.7 2.61 2.6 2.82 13 0.31 15.08-2.37 1.97-15.56 2.11-23.17 0.25z" fill="#0f0"/>
  <path id="path2165" d="m133.88 76.094c-0.31-16.924-12.98-30.191-29.77-31.163l-6.892-0.399 0.657 4.111c2.495 15.623 12.045 27.164 27.125 32.804 8.73 3.264 9.04 3.079 8.88-5.353zm25.34 5.539c14.36-5.313 22.24-13.823 26.68-28.79 2.51-8.46 2.58-8.349-5.17-7.911-16.91 0.956-28.92 13.4-30 31.093-0.55 8.996-0.59 8.97 8.49 5.608z" fill="#ff0"/>
  <metadata>
    <rdf:RDF>
      <cc:Work>
        <dc:format>image/svg+xml</dc:format>
        <dc:type rdf:resource="http://purl.org/dc/dcmitype/StillImage"/>
        <cc:license rdf:resource="http://creativecommons.org/licenses/publicdomain/"/>
        <dc:publisher>
          <cc:Agent rdf:about="http://openclipart.org/">
            <dc:title>Openclipart</dc:title>
          </cc:Agent>
        </dc:publisher>
        <dc:title>little green alien</dc:title>
        <dc:date>2007-08-25T18:56:47</dc:date>
        <dc:description>a little green alien flashing the peace sign</dc:description>
        <dc:source>http://openclipart.org/detail/4979/little-green-alien-by-laurent</dc:source>
        <dc:creator>
          <cc:Agent>
            <dc:title>laurent</dc:title>
          </cc:Agent>
        </dc:creator>
        <dc:subject>
          <rdf:Bag>
            <rdf:li>alien</rdf:li>
            <rdf:li>cartoon</rdf:li>
            <rdf:li>clip art</rdf:li>
            <rdf:li>clipart</rdf:li>
            <rdf:li>green</rdf:li>
            <rdf:li>image</rdf:li>
            <rdf:li>media</rdf:li>
            <rdf:li>peace</rdf:li>
            <rdf:li>peace sign</rdf:li>
            <rdf:li>public domain</rdf:li>
            <rdf:li>svg</rdf:li>
          </rdf:Bag>
        </dc:subject>
      </cc:Work>
      <cc:License rdf:about="http://creativecommons.org/licenses/publicdomain/">
        <cc:permits rdf:resource="http://creativecommons.org/ns#Reproduction"/>
        <cc:permits rdf:resource="http://creativecommons.org/ns#Distribution"/>
        <cc:permits rdf:resource="http://creativecommons.org/ns#DerivativeWorks"/>
      </cc:License>
    </rdf:RDF>
  </metadata>
</svg>
